<mxfile host="app.diagrams.net" modified="2023-10-15T13:22:43.628Z" agent="Mozilla/5.0 (Macintosh; Intel Mac OS X 10_15_7) AppleWebKit/537.36 (KHTML, like Gecko) Chrome/118.0.0.0 Safari/537.36" etag="2YoilzSpd0m8EXFGMhGm" version="22.0.4" type="device">
  <diagram name="Page-1" id="q0aN9C3ZCvXhXREPQR7S">
    <mxGraphModel dx="1588" dy="1108" grid="1" gridSize="10" guides="1" tooltips="1" connect="1" arrows="1" fold="1" page="1" pageScale="1" pageWidth="827" pageHeight="1169" math="0" shadow="0">
      <root>
        <mxCell id="0" />
        <mxCell id="1" parent="0" />
        <mxCell id="X623mI5D7pwIxlIXd98o-2" value="BANK EMPLOYEE" style="shape=umlActor;verticalLabelPosition=bottom;verticalAlign=top;html=1;outlineConnect=0;" vertex="1" parent="1">
          <mxGeometry x="120" y="370" width="30" height="60" as="geometry" />
        </mxCell>
        <mxCell id="X623mI5D7pwIxlIXd98o-6" value="APPROVE LOAN AMOUNT" style="ellipse;whiteSpace=wrap;html=1;" vertex="1" parent="1">
          <mxGeometry x="605" y="190" width="140" height="60" as="geometry" />
        </mxCell>
        <mxCell id="X623mI5D7pwIxlIXd98o-7" value="VIEW FUTURE REPAYMENT DETAILS" style="ellipse;whiteSpace=wrap;html=1;" vertex="1" parent="1">
          <mxGeometry x="600" y="430" width="140" height="60" as="geometry" />
        </mxCell>
        <mxCell id="X623mI5D7pwIxlIXd98o-8" value="VIEW LOAN REPAYMENT DETAILS" style="ellipse;whiteSpace=wrap;html=1;" vertex="1" parent="1">
          <mxGeometry x="600" y="350" width="130" height="60" as="geometry" />
        </mxCell>
        <mxCell id="X623mI5D7pwIxlIXd98o-9" value="PROVIDE LOAN LETTER&amp;nbsp;" style="ellipse;whiteSpace=wrap;html=1;" vertex="1" parent="1">
          <mxGeometry x="605" y="270" width="130" height="60" as="geometry" />
        </mxCell>
        <mxCell id="X623mI5D7pwIxlIXd98o-10" value="" style="endArrow=classic;html=1;rounded=0;entryX=0.028;entryY=0.751;entryDx=0;entryDy=0;entryPerimeter=0;" edge="1" parent="1" target="X623mI5D7pwIxlIXd98o-16">
          <mxGeometry width="50" height="50" relative="1" as="geometry">
            <mxPoint x="160" y="400" as="sourcePoint" />
            <mxPoint x="520" y="440" as="targetPoint" />
          </mxGeometry>
        </mxCell>
        <mxCell id="X623mI5D7pwIxlIXd98o-12" value="" style="endArrow=classic;html=1;rounded=0;entryX=0.022;entryY=0.668;entryDx=0;entryDy=0;entryPerimeter=0;" edge="1" parent="1" target="X623mI5D7pwIxlIXd98o-17">
          <mxGeometry width="50" height="50" relative="1" as="geometry">
            <mxPoint x="160" y="400" as="sourcePoint" />
            <mxPoint x="300" y="380" as="targetPoint" />
          </mxGeometry>
        </mxCell>
        <mxCell id="X623mI5D7pwIxlIXd98o-13" value="" style="endArrow=classic;html=1;rounded=0;entryX=-0.026;entryY=0.354;entryDx=0;entryDy=0;entryPerimeter=0;" edge="1" parent="1" target="X623mI5D7pwIxlIXd98o-8">
          <mxGeometry width="50" height="50" relative="1" as="geometry">
            <mxPoint x="160" y="400" as="sourcePoint" />
            <mxPoint x="510" y="340" as="targetPoint" />
          </mxGeometry>
        </mxCell>
        <mxCell id="X623mI5D7pwIxlIXd98o-14" value="" style="endArrow=classic;html=1;rounded=0;entryX=-0.006;entryY=0.404;entryDx=0;entryDy=0;entryPerimeter=0;" edge="1" parent="1" target="X623mI5D7pwIxlIXd98o-7">
          <mxGeometry width="50" height="50" relative="1" as="geometry">
            <mxPoint x="160" y="400" as="sourcePoint" />
            <mxPoint x="510" y="340" as="targetPoint" />
          </mxGeometry>
        </mxCell>
        <mxCell id="X623mI5D7pwIxlIXd98o-15" value="PROVIDE NOC / CLOSURE LETTER" style="ellipse;whiteSpace=wrap;html=1;" vertex="1" parent="1">
          <mxGeometry x="600" y="670" width="140" height="60" as="geometry" />
        </mxCell>
        <mxCell id="X623mI5D7pwIxlIXd98o-16" value="NEW LOAN ACCOUNT DETAILS" style="ellipse;whiteSpace=wrap;html=1;" vertex="1" parent="1">
          <mxGeometry x="595" y="20" width="160" height="60" as="geometry" />
        </mxCell>
        <mxCell id="X623mI5D7pwIxlIXd98o-17" value="VERIFY DOCUMENTS" style="ellipse;whiteSpace=wrap;html=1;" vertex="1" parent="1">
          <mxGeometry x="600" y="110" width="150" height="60" as="geometry" />
        </mxCell>
        <mxCell id="X623mI5D7pwIxlIXd98o-18" value="ANNUAL LOAN STATEMENT" style="ellipse;whiteSpace=wrap;html=1;" vertex="1" parent="1">
          <mxGeometry x="600" y="590" width="160" height="60" as="geometry" />
        </mxCell>
        <mxCell id="X623mI5D7pwIxlIXd98o-19" value="MODIFY INTEREST RATE" style="ellipse;whiteSpace=wrap;html=1;" vertex="1" parent="1">
          <mxGeometry x="600" y="510" width="150" height="60" as="geometry" />
        </mxCell>
        <mxCell id="X623mI5D7pwIxlIXd98o-22" value="VIEW CUSTOMER MISSED PAYMENTS" style="ellipse;whiteSpace=wrap;html=1;" vertex="1" parent="1">
          <mxGeometry x="580" y="750" width="150" height="60" as="geometry" />
        </mxCell>
        <mxCell id="X623mI5D7pwIxlIXd98o-25" value="" style="endArrow=classic;html=1;rounded=0;entryX=0.008;entryY=0.64;entryDx=0;entryDy=0;entryPerimeter=0;" edge="1" parent="1" target="X623mI5D7pwIxlIXd98o-6">
          <mxGeometry width="50" height="50" relative="1" as="geometry">
            <mxPoint x="160" y="400" as="sourcePoint" />
            <mxPoint x="600" y="310" as="targetPoint" />
          </mxGeometry>
        </mxCell>
        <mxCell id="X623mI5D7pwIxlIXd98o-26" value="" style="endArrow=classic;html=1;rounded=0;entryX=0.022;entryY=0.682;entryDx=0;entryDy=0;entryPerimeter=0;" edge="1" parent="1" target="X623mI5D7pwIxlIXd98o-9">
          <mxGeometry width="50" height="50" relative="1" as="geometry">
            <mxPoint x="160" y="400" as="sourcePoint" />
            <mxPoint x="610" y="320" as="targetPoint" />
          </mxGeometry>
        </mxCell>
        <mxCell id="X623mI5D7pwIxlIXd98o-27" value="" style="endArrow=classic;html=1;rounded=0;entryX=-0.013;entryY=0.404;entryDx=0;entryDy=0;entryPerimeter=0;" edge="1" parent="1" target="X623mI5D7pwIxlIXd98o-19">
          <mxGeometry width="50" height="50" relative="1" as="geometry">
            <mxPoint x="160" y="400" as="sourcePoint" />
            <mxPoint x="620" y="330" as="targetPoint" />
          </mxGeometry>
        </mxCell>
        <mxCell id="X623mI5D7pwIxlIXd98o-29" value="" style="endArrow=classic;html=1;rounded=0;entryX=0;entryY=0.333;entryDx=0;entryDy=0;entryPerimeter=0;" edge="1" parent="1" target="X623mI5D7pwIxlIXd98o-18">
          <mxGeometry width="50" height="50" relative="1" as="geometry">
            <mxPoint x="160" y="400" as="sourcePoint" />
            <mxPoint x="470" y="620" as="targetPoint" />
          </mxGeometry>
        </mxCell>
        <mxCell id="X623mI5D7pwIxlIXd98o-31" value="" style="endArrow=classic;html=1;rounded=0;entryX=0;entryY=0.5;entryDx=0;entryDy=0;" edge="1" parent="1" target="X623mI5D7pwIxlIXd98o-15">
          <mxGeometry width="50" height="50" relative="1" as="geometry">
            <mxPoint x="160" y="400" as="sourcePoint" />
            <mxPoint x="610" y="620" as="targetPoint" />
          </mxGeometry>
        </mxCell>
        <mxCell id="X623mI5D7pwIxlIXd98o-32" value="" style="endArrow=classic;html=1;rounded=0;entryX=0;entryY=0.333;entryDx=0;entryDy=0;entryPerimeter=0;" edge="1" parent="1">
          <mxGeometry width="50" height="50" relative="1" as="geometry">
            <mxPoint x="160" y="400" as="sourcePoint" />
            <mxPoint x="600" y="610" as="targetPoint" />
          </mxGeometry>
        </mxCell>
        <mxCell id="X623mI5D7pwIxlIXd98o-35" value="" style="endArrow=classic;html=1;rounded=0;entryX=0;entryY=0.5;entryDx=0;entryDy=0;" edge="1" parent="1" target="X623mI5D7pwIxlIXd98o-22">
          <mxGeometry width="50" height="50" relative="1" as="geometry">
            <mxPoint x="160" y="400" as="sourcePoint" />
            <mxPoint x="610" y="680" as="targetPoint" />
          </mxGeometry>
        </mxCell>
      </root>
    </mxGraphModel>
  </diagram>
</mxfile>
